<svg xmlns="http://www.w3.org/2000/svg" viewBox="0 0 512 512" fill="none">
  <!-- Antenna -->
  <circle cx="256" cy="48" r="24" stroke="#1E293B" stroke-width="24" />
  <line x1="256" y1="72" x2="256" y2="104" stroke="#1E293B" stroke-width="24" />
  
  <!-- Shield Body -->
  <path d="M256 104 L64 160 V264 C64 380 148 468 256 496 C364 468 448 380 448 264 V160 L256 104 Z" stroke="#1E293B" stroke-width="24" fill="white" stroke-linejoin="round"/>
  
  <!-- Content inside shield -->
  <mask id="shield-mask">
    <path d="M256 104 L64 160 V264 C64 380 148 468 256 496 C364 468 448 380 448 264 V160 L256 104 Z" fill="white" />
  </mask>
  
  <g mask="url(#shield-mask)">
    <!-- Vertical Divider -->
    <line x1="256" y1="104" x2="256" y2="496" stroke="#1E293B" stroke-width="16" />
    
    <!-- Left: Curly Brace { -->
    <path d="M196 180 C176 180 166 190 166 210 V230 C166 250 150 264 136 264 C150 264 166 278 166 298 V318 C166 338 176 348 196 348" stroke="#1E293B" stroke-width="24" stroke-linecap="round" fill="none"/>
    
    <!-- Right: Circuit Traces -->
    <circle cx="350" cy="200" r="12" fill="#1E293B" />
    <path d="M350 200 L390 240 H420" stroke="#1E293B" stroke-width="16" fill="none" />
    <circle cx="400" cy="350" r="12" fill="#1E293B" />
    <path d="M400 350 L360 310 V290" stroke="#1E293B" stroke-width="16" fill="none" />
    <circle cx="320" cy="260" r="8" fill="#1E293B" />
  </g>
  
  <!-- Horizontal Cyan Bars (Overlay) -->
  <rect x="186" y="240" width="140" height="20" rx="10" fill="#2DD4BF" />
  <rect x="186" y="275" width="140" height="20" rx="10" fill="#2DD4BF" />
</svg>
